<svg xmlns="http://www.w3.org/2000/svg" width="25.192" height="28.788" viewBox="0 0 25.192 28.788">
  <path id="Path_4" data-name="Path 4" d="M25.182,20.15V1.444A1.324,1.324,0,0,0,23.744,0H5.4A5.3,5.3,0,0,0,0,5.2c0,.067,0,.135,0,.2V23.388a5.3,5.3,0,0,0,5.2,5.4q.1,0,.2,0H23.744a1.418,1.418,0,0,0,1.439-1.4c0-.014,0-.028,0-.042v-.9a1.554,1.554,0,0,0-.54-1.079,15.921,15.921,0,0,1,0-4.137,1.088,1.088,0,0,0,.54-1.08ZM8.1,9.448A.45.45,0,0,1,8.544,9H11.7V5.85a.45.45,0,0,1,.45-.45h2.7a.45.45,0,0,1,.45.45V9h3.148a.45.45,0,0,1,.45.45v2.7a.45.45,0,0,1-.45.45H15.294v3.148a.45.45,0,0,1-.45.45h-2.7a.45.45,0,0,1-.45-.45V12.6H8.544a.45.45,0,0,1-.45-.45Zm15,15.739H5.4a1.7,1.7,0,0,1-1.8-1.8,1.8,1.8,0,0,1,1.8-1.8H23.1Z" transform="translate(0.001 0.001)" fill="#fe4848"/>
</svg>
