<svg id="Group_4" data-name="Group 4" xmlns="http://www.w3.org/2000/svg" xmlns:xlink="http://www.w3.org/1999/xlink" width="16.598" height="22.207" viewBox="0 0 16.598 22.207">
  <defs>
    <clipPath id="clip-path">
      <rect id="Rectangle_11" data-name="Rectangle 11" width="16.598" height="22.207" fill="#fed9d9"/>
    </clipPath>
  </defs>
  <g id="Group_3" data-name="Group 3" clip-path="url(#clip-path)">
    <path id="Path_3" data-name="Path 3" d="M15.583,22.208H2.368a.375.375,0,0,0-.061-.023A2.9,2.9,0,0,1,0,19.267C.025,13.829.01,8.391.011,2.954a3.335,3.335,0,0,1,.02-.519A2.808,2.808,0,0,1,2.877.006Q5.9,0,8.922.006c.341,0,.342,0,.342.352q0,2.947,0,5.893a2.241,2.241,0,0,0,.013.346.313.313,0,0,0,.515.226,1.016,1.016,0,0,0,.293-.343c.357-.569.711-1.139,1.068-1.708.145-.231.159-.23.307.007q.524.835,1.046,1.671a1.293,1.293,0,0,0,.282.354.317.317,0,0,0,.535-.148.948.948,0,0,0,.034-.343c0-2.008,0-4.015,0-6.023,0-.211.054-.294.279-.288.534.015,1.069,0,1.6.005A1.288,1.288,0,0,1,16.6,1.367q0,9.749,0,19.5a1.409,1.409,0,0,1-.033.365,1.358,1.358,0,0,1-.98.977M8.932,21.118h6.044c.087,0,.173,0,.26,0a.222.222,0,0,0,.256-.249c0-.188,0-.376,0-.563,0-.331,0-.333-.342-.333H3.628c-.087,0-.174,0-.26,0A.546.546,0,0,1,3.232,18.9a1.31,1.31,0,0,1,.429-.042l11.4,0c.072,0,.145,0,.217,0,.155.01.228-.057.224-.215s0-.332,0-.5c0-.409-.022-.43-.427-.43H3c-.087,0-.173,0-.26,0a1.7,1.7,0,0,0-1.408,2.516,1.683,1.683,0,0,0,1.6.887c2-.006,4,0,6,0" transform="translate(0 -0.001)" fill="#fed9d9"/>
  </g>
</svg>
