<svg xmlns="http://www.w3.org/2000/svg" width="84" height="28" viewBox="0 0 84 28" fill="none">
    <path d="M2 26C3.47654 24.2981 4.55535 22.2535 5.92157 20.4731C7.8396 17.9736 10.1197 15.5327 13.0992 13.9394C17.9592 11.3407 22.6762 9.60985 28.4765 9.54255C32.3115 9.49805 35.2137 10.0947 38.6964 11.4328C40.224 12.0197 41.6478 12.9093 43.1171 13.6107C44.1801 14.1182 45.3667 14.5159 46.3256 15.1722C50.4548 17.9981 55.1949 19.0898 60.3244 17.6788C65.3829 16.2874 69.8232 13.6998 73.5627 10.4671C74.7311 9.45707 75.6374 8.18239 76.6049 7.05647C77.4953 6.02029 77.6989 4.53551 78.6964 3.62526C78.9255 3.41617 79.5215 1.93647 79.0767 2.00212C78.2463 2.12467 77.6451 2.66093 76.7712 2.70069C75.9285 2.73903 74.945 2.96026 74.1331 3.1527C71.1972 3.84861 74.79 3.12947 75.7968 3.02943C77.3022 2.87984 78.7285 2.68683 80.0749 2.10485C80.1133 2.08825 81.073 4.44682 81.1919 4.96076C81.381 5.77785 82 6.70932 82 7.50848" stroke="black" stroke-width="3" stroke-linecap="round"/>
</svg>