<svg xmlns="http://www.w3.org/2000/svg" width="23.095" height="22.207" viewBox="0 0 23.095 22.207">
  <path id="Icon_ionic-ios-heart" data-name="Icon ionic-ios-heart" d="M20.252,3.938H20.2a6.317,6.317,0,0,0-5.274,2.887A6.317,6.317,0,0,0,9.648,3.938H9.593a6.277,6.277,0,0,0-6.218,6.273,13.514,13.514,0,0,0,2.654,7.367,46.505,46.505,0,0,0,8.894,8.566,46.505,46.505,0,0,0,8.894-8.566,13.514,13.514,0,0,0,2.654-7.367A6.277,6.277,0,0,0,20.252,3.938Z" transform="translate(-3.375 -3.938)" fill="#fed9d9"/>
</svg>
