<svg xmlns="http://www.w3.org/2000/svg" width="16.363" height="16" viewBox="0 0 16.363 16">
  <g id="Group_368" data-name="Group 368" transform="translate(-1468.637 -1032)">
    <path id="Icon_awesome-angle-up" data-name="Icon awesome-angle-up" d="M8.756,11.082l6.729,6.729a1.183,1.183,0,0,1,0,1.677l-1.118,1.118a1.183,1.183,0,0,1-1.677,0L7.915,15.842,3.146,20.611a1.183,1.183,0,0,1-1.677,0L.345,19.493a1.183,1.183,0,0,1,0-1.677l6.729-6.729a1.184,1.184,0,0,1,1.682,0Z" transform="translate(1489.597 1032.003) rotate(90)" fill="#589bc5"/>
    <rect id="Rectangle_166" data-name="Rectangle 166" width="4" height="16" rx="1" transform="translate(1481 1032)" fill="#589bc5"/>
  </g>
</svg>
